<?xml version="1.0" standalone="no"?>
<!DOCTYPE svg PUBLIC "-//W3C//DTD SVG 20010904//EN"
 "http://www.w3.org/TR/2001/REC-SVG-20010904/DTD/svg10.dtd">
<svg version="1.0" xmlns="http://www.w3.org/2000/svg"
 width="450.000000pt" height="245.000000pt" viewBox="0 0 450.000000 245.000000"
 preserveAspectRatio="xMidYMid meet">
<metadata>
Created by potrace 1.10, written by Peter Selinger 2001-2011
</metadata>
<g transform="translate(0.000000,245.000000) scale(0.100000,-0.100000)"
fill="#000000" stroke="none">
<path d="M2490 1859 c-19 -4 -80 -18 -135 -29 -55 -12 -108 -24 -117 -26 -17
-5 -18 -35 -18 -440 0 -239 4 -433 8 -430 5 3 7 191 5 418 -2 227 -1 418 4
424 7 10 216 -2 578 -33 l90 -8 3 -472 c1 -324 -1 -473 -8 -473 -6 0 -106 14
-222 30 -222 32 -268 36 -252 21 5 -4 116 -22 246 -40 l238 -31 150 67 150 67
0 458 c0 358 -3 460 -12 463 -20 6 -568 45 -623 44 -27 -1 -66 -5 -85 -10z
m440 -29 c96 -7 182 -15 190 -17 8 -3 -34 -17 -95 -32 l-110 -26 -255 18
c-140 10 -275 21 -300 24 -44 6 -43 7 60 29 116 26 183 26 510 4z m263 -472
c-1 -244 -6 -444 -10 -445 -4 -2 -62 -28 -128 -58 -65 -30 -120 -55 -122 -55
-2 0 -3 211 -3 469 l0 468 113 30 c61 17 121 31 132 32 20 1 20 -5 18 -441z"/>
<path d="M3118 1023 c-21 -8 -38 -20 -38 -25 0 -6 8 -7 18 -3 9 4 29 12 45 17
15 5 27 14 27 19 0 12 -8 11 -52 -8z"/>
<path d="M3118 983 c-21 -8 -38 -20 -38 -25 0 -5 3 -8 8 -6 4 2 24 10 45 18
20 8 37 18 37 22 0 11 -9 9 -52 -9z"/>
<path d="M3118 943 c-21 -9 -38 -20 -38 -25 0 -6 8 -7 18 -3 9 4 29 12 45 17
15 5 27 14 27 19 0 12 -7 10 -52 -8z"/>
<path d="M2272 1748 c-17 -17 -17 -629 0 -646 7 -7 25 -12 40 -12 25 0 28 -3
28 -35 0 -41 -9 -38 179 -61 149 -18 181 -12 181 33 0 25 7 28 29 14 9 -6 10
-11 2 -15 -7 -4 -11 -40 -11 -90 0 -95 9 -109 76 -119 28 -5 47 -2 62 9 20 13
22 24 22 98 0 46 -5 87 -11 93 -8 8 -8 13 0 17 8 5 11 111 11 341 l0 334 -32
5 c-18 3 -134 12 -258 21 -124 8 -243 18 -265 21 -25 3 -45 0 -53 -8z m273
-29 c88 -6 196 -14 240 -17 l80 -7 3 -322 2 -323 -37 1 c-21 0 -60 4 -88 7
l-49 7 67 39 c74 44 78 54 55 146 -6 25 -11 92 -12 150 -1 87 -5 112 -23 146
-31 59 -93 110 -156 130 -49 15 -62 16 -118 4 -143 -31 -228 -157 -199 -297
35 -169 211 -254 366 -178 36 18 64 40 81 66 14 21 27 39 29 39 1 0 7 -21 13
-48 5 -26 13 -55 17 -66 6 -16 5 -17 -13 -5 -11 7 -28 9 -37 6 -17 -7 -23 -57
-6 -57 6 0 10 -4 10 -8 0 -8 -14 -16 -62 -40 -5 -2 -8 6 -8 17 0 12 -3 21 -7
21 -5 0 -75 7 -156 16 -161 18 -197 13 -197 -27 0 -15 -4 -19 -16 -15 -9 3
-22 6 -30 6 -12 0 -14 50 -14 316 l0 316 53 -6 c28 -3 124 -11 212 -17z m135
-81 c53 -36 88 -88 105 -154 11 -45 13 -68 5 -88 -5 -15 -10 -37 -10 -50 0
-24 -55 -106 -72 -106 -5 0 1 13 15 29 14 17 33 54 42 84 14 46 15 64 6 106
-19 88 -63 155 -126 189 -11 6 -15 12 -9 12 6 0 26 -10 44 -22z m-130 -13 c0
-28 -29 -85 -43 -85 -8 0 -26 -10 -41 -21 -22 -18 -33 -20 -59 -12 -42 12 -44
32 -7 70 53 55 150 86 150 48z m94 -21 l38 -26 -34 -35 c-32 -32 -37 -34 -57
-22 -11 8 -21 18 -21 24 0 21 21 85 28 85 4 0 25 -12 46 -26z m76 -106 c23
-51 25 -106 6 -153 -18 -42 -25 -43 -58 -7 -23 23 -26 35 -24 89 1 50 5 66 25
87 14 14 26 26 28 26 2 0 13 -19 23 -42z m-157 0 c52 -27 62 -83 22 -123 -50
-51 -120 -18 -120 55 0 64 46 96 98 68z m-164 -29 c25 -9 31 -17 31 -39 0 -24
-5 -29 -40 -38 -21 -5 -42 -7 -45 -4 -3 3 -5 25 -5 49 0 47 6 50 59 32z m71
-130 c0 -4 13 -12 30 -19 23 -9 31 -21 38 -54 5 -22 7 -43 6 -44 -1 -2 -21 -1
-43 3 -43 7 -131 79 -131 107 0 21 59 38 83 24 9 -6 17 -14 17 -17z m177 -33
c31 -31 32 -34 15 -48 -56 -49 -75 -45 -87 20 -5 26 -2 37 12 48 24 18 24 18
60 -20z m-67 -180 c47 -8 72 -14 55 -14 -16 0 -70 6 -120 13 -49 7 -74 13 -55
13 19 0 73 -5 120 -12z m-55 -19 l110 -12 3 -49 3 -48 -33 5 c-18 3 -81 11
-140 18 l-108 12 0 48 c0 48 1 48 28 43 15 -3 77 -11 137 -17z m163 -19 c-6
-18 -28 -21 -28 -4 0 9 7 16 16 16 9 0 14 -5 12 -12z m2 -47 c0 -10 -7 -24
-15 -31 -13 -10 -15 -9 -15 12 0 14 3 28 7 31 12 13 23 7 23 -12z m151 -21
c16 -9 19 -22 19 -85 0 -40 -3 -80 -6 -89 -7 -18 -49 -21 -88 -6 -25 9 -26 13
-26 93 0 46 3 87 7 90 10 11 72 8 94 -3z"/>
<path d="M2504 1445 c-9 -23 3 -45 26 -45 25 0 37 25 20 45 -16 19 -39 19 -46
0z"/>
<path d="M2784 989 c-10 -17 13 -36 27 -22 12 12 4 33 -11 33 -5 0 -12 -5 -16
-11z"/>
<path d="M2790 916 c0 -14 5 -26 10 -26 6 0 10 9 10 19 0 11 -4 23 -10 26 -6
4 -10 -5 -10 -19z"/>
<path d="M2763 904 c-8 -22 9 -48 34 -52 26 -4 48 22 38 45 -7 17 -8 16 -13
-2 -2 -11 -8 -24 -13 -29 -13 -14 -38 12 -32 34 6 24 -5 27 -14 4z"/>
<path d="M1605 1326 c-41 -18 -52 -33 -65 -91 -6 -27 -20 -69 -31 -94 -10 -24
-19 -52 -19 -62 0 -11 -7 -19 -17 -19 -33 0 -119 -47 -147 -80 -106 -126 174
-235 414 -161 41 13 125 47 187 76 61 29 142 63 180 75 82 27 102 42 83 64
-13 17 -100 46 -135 46 -19 0 -23 9 -34 76 -16 99 -28 130 -54 147 -30 19 -85
27 -132 19 -23 -5 -68 -2 -105 5 -81 15 -88 15 -125 -1z m113 -16 c18 0 31 -4
28 -9 -9 -14 -122 -42 -142 -35 -18 7 -18 6 -1 -12 17 -18 20 -18 115 13 128
42 153 46 200 34 52 -15 59 -25 79 -116 l17 -78 -29 -23 c-20 -16 -43 -24 -70
-24 -21 0 -87 -5 -146 -12 -117 -13 -245 1 -256 28 -3 7 4 37 16 66 11 29 25
71 31 94 14 59 54 88 105 78 11 -2 35 -4 53 -4z m302 -264 c0 -44 -26 -57 -32
-16 -4 28 6 50 24 50 4 0 8 -15 8 -34z m103 -1 c31 -8 57 -19 57 -23 0 -5 -26
-16 -57 -26 -32 -10 -114 -44 -183 -76 -69 -32 -159 -69 -200 -81 -151 -47
-348 -21 -403 53 -18 24 -18 30 -7 58 13 32 72 73 123 85 25 7 27 5 27 -24 0
-42 29 -59 128 -73 61 -9 104 -9 179 0 183 22 253 50 253 102 0 19 4 28 13 25
6 -2 38 -11 70 -20z m-528 -17 c33 -5 99 -6 148 -3 l87 7 0 -35 0 -36 -56 -7
c-75 -9 -191 0 -237 20 -32 13 -37 20 -37 47 0 26 3 30 18 24 9 -4 44 -11 77
-17z m375 -8 c0 -16 -4 -30 -9 -30 -10 0 -22 40 -15 52 11 18 24 6 24 -22z
m-42 -12 c3 -23 -1 -28 -25 -33 -15 -4 -33 -8 -40 -10 -6 -2 -13 12 -15 36
l-4 40 41 -3 c35 -3 40 -6 43 -30z"/>
<path d="M1690 1201 c0 -35 60 -81 106 -81 27 0 14 18 -18 24 -35 7 -68 32
-68 52 0 7 -4 16 -10 19 -5 3 -10 -3 -10 -14z"/>
<path d="M2115 926 c70 -14 195 -62 195 -76 0 -17 -14 -17 -43 0 -60 34 -174
63 -235 58 -61 -5 -172 -52 -172 -73 0 -19 32 -42 75 -54 99 -27 237 -2 258
48 6 14 12 27 13 29 5 9 93 -44 97 -60 3 -10 14 -18 26 -18 25 0 132 -52 178
-86 17 -13 38 -24 46 -24 20 0 49 36 45 56 -3 19 -3 19 -113 69 -44 20 -89 44
-100 54 -11 10 -33 21 -50 24 -16 3 -59 17 -95 33 -44 19 -86 29 -130 31 l-65
3 70 -14z m40 -50 c19 -8 35 -20 35 -27 0 -8 -4 -8 -15 1 -8 6 -34 18 -57 25
-28 9 -35 14 -20 14 12 1 38 -6 57 -13z m-25 -22 c47 -19 47 -34 -1 -51 -101
-35 -313 7 -237 48 60 32 162 33 238 3z m207 -30 c-9 -18 -16 -23 -22 -15 -4
7 1 21 11 32 23 26 29 17 11 -17z m32 -10 c-14 -18 -24 -11 -15 11 3 9 11 13
16 10 8 -5 7 -11 -1 -21z m41 -19 c-13 -16 -40 -20 -40 -7 0 14 12 22 33 22
16 0 17 -3 7 -15z m40 -20 c-13 -16 -40 -20 -40 -7 0 14 12 22 33 22 16 0 17
-3 7 -15z m40 -20 c-13 -16 -40 -20 -40 -7 0 14 12 22 33 22 16 0 17 -3 7 -15z
m24 -20 c-6 -16 -24 -21 -24 -7 0 11 11 22 21 22 5 0 6 -7 3 -15z m55 1 c15
-18 3 -46 -20 -46 -25 0 -35 26 -19 45 15 19 24 19 39 1z"/>
<path d="M1827 833 c-2 -4 -1 -18 4 -31 25 -66 233 -92 334 -42 42 21 50 30
53 55 l3 30 -13 -24 c-26 -49 -73 -66 -183 -66 -109 0 -158 17 -181 64 -7 12
-14 19 -17 14z"/>
<path d="M1795 807 c-10 -24 18 -63 63 -86 46 -23 107 -28 243 -17 78 6 112 5
129 -4 20 -11 21 -14 7 -27 -8 -8 -36 -17 -63 -20 -53 -5 -84 -18 -84 -34 0
-6 7 -6 19 1 28 14 36 12 21 -5 -19 -23 -3 -31 17 -8 10 11 37 25 60 32 56 15
71 43 42 72 -21 21 -27 21 -113 13 -211 -20 -305 0 -324 69 -8 26 -11 29 -17
14z"/>
</g>
</svg>
